<svg xmlns="http://www.w3.org/2000/svg" height="24" width="24" style=""><rect id="backgroundrect" width="100%" height="100%" x="0" y="0" fill="none" stroke="none" class="" style=""/><g class="currentLayer" style=""><title>Layer 1</title><path d="m15.16016107991933,4.098161695462538 h-5.796189569921153 c-3.1959754574327492,0 -5.796189569921153,2.6938324732225603 -5.796189569921153,6.004876140551728 v12.009752281103458 c0,1.4887574159272536 1.053354571968304,2.718392416637417 2.4270529490870105,2.9531380371619362 l-0.6245828975807791,2.210229773243227 l2.7820550697707556,0.8415038264894651 l0.8485201306620762,-3.002438070275864 h6.531508669235275 l0.8731959587086232,3.002438070275864 l2.7827651029930696,-0.8385719457138393 l-0.6437755302941819,-2.2148084913003974 c1.3663531558862236,-0.2413449794029854 2.411837951465966,-1.4681411749177031 2.411837951465966,-2.9514866962232835 v-12.009752281103458 c0,-3.311043667329169 -2.6002141124884037,-6.004876140551728 -5.796189569921153,-6.004876140551728 zm-5.796015684234054,17.26401890408622 c-0.8003190181986118,0 -1.4490473924802871,-0.6721768278591516 -1.4490473924802871,-1.5012190351379329 c0,-0.8291337816399285 0.6487283742816787,-1.5012190351379329 1.4490473924802871,-1.5012190351379329 c0.8002306263076713,0 1.4490473924802871,0.672085253498009 1.4490473924802871,1.5012190351379329 c0,0.8290422072787835 -0.6488167661726194,1.5012190351379329 -1.4490473924802871,1.5012190351379329 zm5.796189569921153,0 c-0.8003190181986118,0 -1.4490473924802871,-0.6721768278591516 -1.4490473924802871,-1.5012190351379329 c0,-0.8291337816399285 0.6487283742816787,-1.5012190351379329 1.4490473924802871,-1.5012190351379329 c0.8002306263076713,0 1.4490473924802871,0.672085253498009 1.4490473924802871,1.5012190351379329 c0,0.8290422072787835 -0.6488167661726194,1.5012190351379329 -1.4490473924802871,1.5012190351379329 zm-2.8982686706476724,-6.755485658120694 c-3.1671394143223917,0 -5.235016986235309,-0.6629218125075245 -5.796189569921153,-1.073228994315284 v-3.4304356171936896 c0,-1.6558896323281944 1.2997563867752224,-3.002438070275864 2.8980947849605787,-3.002438070275864 h5.796189569921153 c1.5983427453275318,0 2.8980947849605787,1.3465529416047772 2.8980947849605787,3.002438070275864 l0.0006190330460676361,3.4299702392927967 c-0.5601973747907025,0.41021410622758137 -2.6284270652199955,1.0736868661210013 -5.796812660299919,1.0736868661210013 z" id="svg_1" class=""/><rect fill="" stroke-dashoffset="" fill-rule="nonzero" x="1.3790179968826521" y="10.742737864261269" width="1.6507937685559568" height="8.924313894116349" style="color: rgb(0, 0, 0);" class="" id="svg_7"/><rect fill="" stroke-dashoffset="" fill-rule="nonzero" x="21.484838116263603" y="10.700409506564736" width="1.6507937685559568" height="8.924313894116349" style="color: rgb(0, 0, 0);" class="" id="svg_6"/><rect fill="" stroke-dashoffset="" fill-rule="nonzero" id="svg_4" x="-63.23809790611267" y="55.269840240478516" width="6" height="0" style="color: rgb(0, 0, 0);" class=""/><rect fill="" stroke-dashoffset="" fill-rule="nonzero" id="svg_3" x="-33.238099098205566" y="96.26983642578125" width="0" height="0" style="color: rgb(74, 144, 214);" class=""/><path fill="" fill-opacity="1" stroke="none" stroke-opacity="1" stroke-width="1" stroke-dasharray="none" stroke-linejoin="miter" stroke-linecap="butt" stroke-dashoffset="" fill-rule="nonzero" opacity="1" marker-start="" marker-mid="" marker-end="" d="M3.4920594589948744,21.066132522223192 C3.4920594589948744,23.800793112648744 7.171617724238413,26.015868190893276 11.714282249230436,26.015868190893276 C16.256946774222463,26.015868190893276 19.936505039465995,23.800793112648744 19.936505039465995,21.066132522223192 C19.936505039465995,18.331471931797793 16.256946774222463,16.116396853553116 11.714282249230436,16.116396853553116 C7.171617724238413,16.116396853553116 3.4920594589948744,18.331471931797793 3.4920594589948744,21.066132522223192 z" id="svg_8" class=""/></g></svg>