<?xml version="1.0"?>
<svg xmlns="http://www.w3.org/2000/svg" xmlns:xlink="http://www.w3.org/1999/xlink" xmlns:svgjs="http://svgjs.com/svgjs" version="1.1" width="512" height="512" x="0" y="0" viewBox="0 0 496 496" style="enable-background:new 0 0 512 512" xml:space="preserve" class=""><g transform="matrix(1,0,0,1,0,0)">
<g xmlns="http://www.w3.org/2000/svg">
	<g>
		<path d="M424,0H72C36.704,0,8,28.704,8,64v288c0,35.296,28.704,64,64,64v64c0,6.208,3.584,11.872,9.216,14.496    C83.36,495.488,85.696,496,88,496c3.648,0,7.328-1.28,10.24-3.712L189.792,416H424c35.296,0,64-28.704,64-64V64    C488,28.704,459.296,0,424,0z M456,352c0,17.632-14.336,32-32,32H184c-3.744,0-7.36,1.312-10.24,3.712L104,445.824V400    c0-8.832-7.168-16-16-16H72c-17.664,0-32-14.368-32-32V64c0-17.632,14.336-32,32-32h352c17.664,0,32,14.368,32,32V352z" fill="#adadad" data-original="#000000" style="" class=""/>
	</g>
</g>
<g xmlns="http://www.w3.org/2000/svg">
	<g>
		<path d="M328,128c-35.296,0-64,28.704-64,64c0,11.712,3.392,22.56,8.896,32h-49.792c5.504-9.44,8.896-20.288,8.896-32    c0-35.296-28.704-64-64-64s-64,28.704-64,64s28.704,64,64,64h160c35.296,0,64-28.704,64-64S363.296,128,328,128z M168,224    c-17.664,0-32-14.368-32-32s14.336-32,32-32s32,14.368,32,32S185.664,224,168,224z M328,224c-17.664,0-32-14.368-32-32    s14.336-32,32-32s32,14.368,32,32S345.664,224,328,224z" fill="#adadad" data-original="#000000" style="" class=""/>
	</g>
</g>
<g xmlns="http://www.w3.org/2000/svg">
</g>
<g xmlns="http://www.w3.org/2000/svg">
</g>
<g xmlns="http://www.w3.org/2000/svg">
</g>
<g xmlns="http://www.w3.org/2000/svg">
</g>
<g xmlns="http://www.w3.org/2000/svg">
</g>
<g xmlns="http://www.w3.org/2000/svg">
</g>
<g xmlns="http://www.w3.org/2000/svg">
</g>
<g xmlns="http://www.w3.org/2000/svg">
</g>
<g xmlns="http://www.w3.org/2000/svg">
</g>
<g xmlns="http://www.w3.org/2000/svg">
</g>
<g xmlns="http://www.w3.org/2000/svg">
</g>
<g xmlns="http://www.w3.org/2000/svg">
</g>
<g xmlns="http://www.w3.org/2000/svg">
</g>
<g xmlns="http://www.w3.org/2000/svg">
</g>
<g xmlns="http://www.w3.org/2000/svg">
</g>
</g></svg>
